<svg id="Layer_1" xmlns="http://www.w3.org/2000/svg" width="167.1" height="25" viewBox="0 0 167.1 25"><style>.st0{fill:#1D1404;} .st1{fill:#001325;} .st2{fill:#A7A9AC;} .st3{fill:#808285;} .st4{fill:#D1D3D4;} .st5{fill:#666666;} .st6{fill:#584C1C;} .st7{fill:#DDBD35;} .st8{fill:#846E14;} .st9{fill:#C6AA2B;} .st10{fill:#BAA02A;} .st11{fill:#FFFB7D;} .st12{fill:#EDC234;}</style><g id="title"><path class="st0" d="M26 11.6h-3.9v-1.4h3.8l.1 1.4z"/><path class="st1" d="M29.8 13.1v-.7h.7v-1h.9V5.5h-.9v-.7h-.7v-.7H17.5v.7h-.7v15.1h.7v.8h.7v.7h2.5v-.7h.7V20h.7v-6.9h.9v1.4h.7v1.6h.9v1.4h.7v1.6h.9v.7h.7v.8h1v.7H30v-.7h.7V20h.9v-3.1h-.7v-.7H30v-1.6h-.7V13l.5.1zM26 9.2h-3.9V7.8h3.8l.1 1.4zM1.4 4v.7H.7v.7H0v2.4h.7v.7h.7v.7h3.1v10.6h.7v.7h.9v.8h2.3v-.7h.7V20h.7V9.2H13v-.7h.7v-.7h.7V5.4h-.7v-.7H13V4H1.4zm46 1.5v-.7h-.7v-.7h-2.4v.7h-.7v.7h-.7v4.6H42v.7h-.7v.7h-.7v-.7h-.9v-.7H39V5.5h-.7v-.7h-.9v-.7h-2.3v.7h-.7v.7h-.7v6.9h.7v.7h.7v.7h.7v.9h.7v.7h.9v.7h.7V20h.9v.7h.7v.9H42v-.7h.7v-.7h.9v-3.9h.7v-.7h.7v-.7h.9V14h.7v-.7h.7v-.7h.9V5.4c-.1 0-.8.1-.8.1z"/><path class="st2" d="M29.1 12.4v-.7h.7v-1h.9V6.3h-.9v-.7h-.7v-.7H18.4v.7h-.9v13.6h.7v.7h1v.8h.8V20h.7v-.9h.7v-6.8h2.3v1.4h.7v1.6h.9v1.4h.7v1.7h.9v.7h.7v.7h1v.8h.7V20h.7v-.9h.7v-1.4H30v-.9h-.7v-1.4h-.9v-1.6h-.7v-1.4h1.4zm-7.7-2.3v-3h5.4V10h-5.4v.1zm-16-1.6v10.6h.7v.7h.7v.7h.9v-.7h.7v-.7h.7V8.5h3.1v-.7h.9v-.7h.7v-.9h-.7v-.7h-.7v-.7H2.1v.7h-.7v.7H.7v.7h.7v.7h.7v.9h3.3zm41.2-2.2v-.7h-.7v-.7H45v.7h-.7v.7h-.7v4.6h-.7v.7H42v.9h-.7v.7h-.7v-.7h-.9v-.7H39v-1h-.7V6.3h-.9v-.7h-.7v-.7H36v.7h-1v.7h-.7v5.4h.7v.7h.7v.7h.7v.9h.9v.7h.7v.7h.9v3.9h.7v.7h.7v.7h1.1V20h.7v-.7h.7v-3.9h.7v-.7h.7V14h.8v-.9h.9v-.7h.7v-.7h.7V6.2l-.7.1z"/><path class="st3" d="M6.9 18.5h.7v.7h-.7v-.7zm.7-10h.7v9.9h-.7V8.5zm3.8-2.2h.7V7h-.7v-.7zm-2.3.8h2.3v.7H9.1v-.7zm-6 0h2.3v.7H3.1v-.7zm5.3.7h.7v.7h-.7v-.7z"/><path class="st4" d="M3.1 5.5h8.4v.7H3.1v-.7zm-.8.8H3V7h-.7v-.7zm3.8 2.2h.7v9.9h-.7V8.5zm-.7-.7h.7v.7h-.7v-.7zm16.7 3h4.6v.7h-4.6v-.7zm5.4-3.7h.7V10h-.7V7.1zm-.8 3h.7v.7h-.7v-.7zm-6.8-4.6h6.9v.7h-6.9v-.7zm-1.5 1.6h.7v11.4h-.7V7.1zm.7-.8h.7V7h-.7v-.7zm7.6 0h.7V7h-.7v-.7z"/><path class="st3" d="M27.5 5.5h.7v.7h-.7v-.7z"/><path class="st4" d="M24.4 12.4h.7v1.4h-.7v-1.4zm.8 1.5h.7v1.4h-.7v-1.4zm.8 1.5h.7v1.4H26v-1.4zm.7 1.5h.7v1.4h-.7v-1.4zm.8 1.6h.7v.7h-.7v-.7zm.8.6h.7v.7h-.7v-.7z"/><path class="st3" d="M19.1 18.5h.7v.7h-.7v-.7zm.8-11.4h.7v11.4h-.7V7.1zm9.2 0h.7V10h-.7V7.1zm-1.6 3.7h.7v.7h-.7v-.7zm.8-.7h.7v.7h-.7v-.7zm0-3.8h.7V7h-.7v-.7zM26 12.4h.7v1.4H26v-1.4zm.7 1.5h.7v1.4h-.7v-1.4zm.8 1.5h.7v1.4h-.7v-1.4zm.8 1.5h.7v1.4h-.7v-1.4zm.8 1.6h.7v.7h-.7v-.7z"/><path class="st4" d="M35.1 7.1h.7v3.6h-.7V7.1zm.8-.8h.7V7h-.7v-.7zm9.1 0h.9V7h-.7c-.1 0-.2-.7-.2-.7zm-.7.8h.7v3.6h-.7V7.1zm-4.6 7.5h.7v3.9h-.7v-3.9zm.8 3.9h.7v.7h-.7v-.7z"/><path class="st3" d="M36.6 7.1h.7v3.6h-.7V7.1zm9.3 0h.7v3.6h-.7V7.1zm-4.6 7.5h.7v3.9h-.7v-3.9z"/><path class="st4" d="M35.9 10.8h.7v.7h-.7v-.7zm.7.8h.7v.7h-.7v-.7zm.8.8h.7v.7h-.7v-.7zm.8.7h.7v.7h-.7v-.7zm.8.8h.7v.7H39v-.7z"/><path class="st3" d="M42 13.9h.7v.7H42v-.7zm.9-.8h.7v.7h-.7v-.7zm.7-.7h.7v.7h-.7v-.7zm.7-.8h.7v.7h-.7v-.7zm.7-.8h.9v.7h-.7c-.1 0-.2-.7-.2-.7z"/><path class="st5" d="M38.1 14.6h.7v.7h-.7v-.7zm-.7-.7h.7v.7h-.7v-.7zm-.7-.8h.7v.7h-.7v-.7zm-.8-.8h.7v.7h-.7v-.7zm-.8-.7h.7v.7h-.7v-.7z"/><path class="st4" d="M43.6 10.8h.7v.7h-.7v-.7zm-.7.8h.7v.7h-.7v-.7zm-.9.8h.7v.7H42v-.7zm-.7.7h.7v.7h-.7v-.7z"/><path class="st6" d="M148.4 1.1V.6h-.6V0h-4.1v.6h-.6v.6h-.6v15.1h-.5v.6h-.7v.6h-.5v-.6h-.6v-.6h-.7V1.1h-.5V.6h-.6V0h-4.1v.6h-.6v.6h-.6v18.1h.6v.5h.6v.6h.6v.6h.7v.6h.6v.7h.6v.5h.6v.7h.6v.5h.6v.6h.6v.4h4.1v-.6h.6v-.6h.6v-.6h.7v-.7h.6V22h.6v-.7h.6v-.5h.6v-.6h.6v-.6h.6v-.5h.7v-18h-1.1zm18 0V.6h-.5V0h-13.4v.6h-.6v.6h-.6v22.6h.5v.6h.6v.6h13.4v-.6h.6v-.6h.7v-8.6h-.7v-.7h-.5V14h-4.1v.6h-.6v.7h-.7v3.4h-2.9V6.4h2.9v3.4h.7v.7h.6v.5h4.1v-.6h.6v-.7h.7V1.2l-.8-.1zm-36 0V.6h-.6V0h-4.1v.6h-.5v.6h-.6v1.7h-.6v1.2h-.7v1.1h-.5V4.1h-.6V2.9h-.6V1.2h-.6V.6h-.6V0h-4.1v.6h-.5v.6h-.6v22.6h.6v.6h.6v.6h4.1v-.6h.6v-.6h.6V13.3h.6v1.1h1.8v-1.1h.6v10.4h.6v.6h.6v.6h4.1v-.6h.6v-.6h.6V1.1h-.8z"/><path class="st7" d="M129.8 1.7v-.6h-.6V.6h-2.9v.6h-.7v.6h-.5v1.9h-.6v1.1h-.5v1.1h-.7v1.4h-.5V5.7h-.6v-1h-.6V3.6h-.6v-2h-.6v-.5h-.6V.6h-2.9v.6h-.7v.6h-.5v21.4h.6v.6h.7v.6h2.9v-.6h.6v-.6h.6V10.4h.6v1.2h.6v1.2h.6v1.1h.6v-1.1h.7v-1.2h.5v-1.1h.6v12.8h.6v.5h.7v.6h2.9v-.6h.6v-.6h.6V1.7h-.9zm35.5 8.7v-.7h.6v-.5h.6V1.7h-.5v-.6h-.6V.6h-12.1v.6h-.7v.6h-.6v21.4h.6v.6h.7v.6h12.1v-.6h.6v-.6h.6v-7.5h-.6v-.6h-.6v-.7h-2.9v.7h-.7v.6h-.5v3.6H157V5.7h4.1v3.6h.6v.6h.6v.7l3-.2zm-17.5-8.7v-.6h-.6V.6h-2.9v.6h-.7v.6h-.5v15.1h-.6v.6h-.5v.6h-.7v.6h-.5v-.6h-.6v-.6h-.7v-.6h-.5V1.7h-.6v-.6h-.6V.6H135v.6h-.7v.6h-.5v16.8h.6v.7h.6v.5h.7v.6h.6v.6h.6v.6h.6v.7h.6v.5h.6v.7h.6v.5h.6v.6h2.9V24h.7v-.6h.5v-.7h.6v-.5h.7v-.7h.6V21h.6v-.6h.6v-.6h.6v-.5h.6v-.7h.6V1.7h-1.1z"/><path class="st8" d="M119.9 10.4h.6v12.1h-.6V10.4zm-2.3 12.7h1.7v.6h-1.6l-.1-.6zm1.6-.6h.7v.6h-.7v-.6zm7.7.6h1.7v.6H127l-.1-.6zm1.7-.6h.6v.6h-.6v-.6zm-8.7-20.1h.6v1.7h-.6V2.4z"/><path class="st9" d="M117.1 22.5h.5v.6h-.6l.1-.6zm-.7-.5h.7v.5h-.7V22zm10 .5h.5v.6h-.6l.1-.6zm-.8-.5h.7v.5h-.7V22zm-6.4-20.3h.7v.6h-.7v-.6zm-.5-.6h.6v.6h-.5l-.1-.6zm9.9.6h.6v.6h-.6v-.6zm-.5-.6h.6v.6h-.6v-.6z"/><path class="st8" d="M129.2 2.4h.6v20.2h-.6V2.4zm36.1 0h.6v6.4h-.6V2.4zm0 13.8h.6v6.4h-.6v-6.4zm-11.7 6.9h11.1v.6h-11.1v-.6zm11-.6h.6v.6h-.6v-.6zm-1.7-13.3h1.7v.6h-1.7v-.6zm1.7-.6h.6v.6h-.6v-.6zm-7.5-4h4.1v.6h-4.1v-.6zm-.6.6h.6v.5h-.6v-.5zm-.6.5h.6v13.5h-.6V5.7z"/><path class="st10" d="M164.1 15.6h.6v.6h-.6v-.6zm.5.6h.6v6.4h-.6v-6.4z"/><path class="st10" d="M153.6 22.5h11.1v.6h-11.1v-.6zm10.5-20.8h.6v.6h-.6v-.6zm.5.7h.6v6.4h-.6V2.4zm-1.7 6.2h1.7v.6h-1.7v-.6zm-5.8-4.5h4.1v.6h-4.1v-.6zm-.6.5h.6v.6h-.6v-.6zm-1.1 1.1h.6v13.5h-.6V5.7zm.5-.5h.6v.5h-.6v-.5z"/><path class="st11" d="M161.8 5.7h.6v2.4h-.6V5.7zm.6 2.4h.6v.6h-.6v-.6zm-8.8-7h10.6v.6h-10.7l.1-.6zM153.1 1.7h.6v.6h-.6v-.6zm-.7.7h.6V22h-.6V2.4zm.7 19.6h.6v.5h-.6V22zm4-2.4h4.1v.6h-4.1v-.6zm-.6-.5h.6v.5h-.6v-.5zm5.3-2.9h.6v2.9h-.6v-2.9zm-.6 2.9h.6v.5h-.6v-.5zm1.2-3.5h.6v.6h-.6v-.6zm.5-.5h1.1v.6h-1.1v-.6zm-1.7-9.9h.6v.5h-.6v-.5z"/><path class="st9" d="M164.6 1.7h.6v.6h-.6v-.6zm-.5-.6h.6v.6h-.6v-.6zm.5 14.5h.6v.6h-.6v-.6zm-.5-.5h.6v.6h-.6v-.6zm-11 7.4h.6v.6h-.6v-.6zm-.7-.5h.6v.5h-.6V22zm10-13.4h.6v.6h-.6v-.6zm-.6-.5h.6v.6h-.6v-.6zm-6.4 11h.6v.5h-.6v-.5zm.5.5h.6v.6h-.6v-.6zm5.9-14.4h.6v.5h-.6v-.5zm-.6-.6h.6v.6h-.6v-.6z"/><path class="st11" d="M135.6 1.1h1.1v.6h-1.1v-.6zm-.7.6h.7v.6h-.7v-.6zm-.5.7h.6V18h-.5l-.1-15.6z"/><path class="st11" d="M134.9 17.9h.7v.6h-.7v-.6zm10-16.8h1.1v.6h-1.1v-.6zm-.7.6h.7v.6h-.7v-.6zm-.5.7h.6v15.1h-.5l-.1-15.1zm-5.8 14.4h.6v.6h-.6v-.6zm.6.6h.6v.6h-.6v-.6zm.6.5h.6v.6h-.6v-.6zm.5.6h.6v.6h-.6v-.6zm.7.6h1.7v.5h-1.8l.1-.5zm1.8-.6h.5v.6h-.6l.1-.6zm.5-.6h.6v.6h-.6v-.6zm.5-.5h.6v.6h-.6v-.6z"/><path class="st10" d="M136.8 1.7h.6v.6h-.6v-.6zm9.3 0h.6v.6h-.6v-.6zm-8.7.7h.6v14.4h-.6V2.4zm9.2 0h.6V18h-.6V2.4zm-.5 15.5h.6v.6h-.6v-.6zm-.6.6h.6v.6h-.6v-.6zm-.6.6h.6v.5h-.6v-.5zm-.7.5h.7v.6h-.7v-.6zm-.5.6h.6v.6h-.5l-.1-.6zm-.6.6h.6v.6h-.6v-.6zm-.5.5h.6v.7h-.6v-.7zm-.5.7h.5v.5h-.6l.1-.5zm-1.8.5h1.7v.6h-1.8l.1-.6z"/><path class="st8" d="M140.3 23.1h1.7v.6h-1.8l.1-.6zm1.8-.6h.5v.6h-.6l.1-.6zm-4.2-20.1h.6v14.4h-.6V2.4zm9.3 0h.6V18h-.6V2.4zM142.6 22h.6v.5h-.6V22zm.5-.7h.6v.7h-.6v-.7zm.6-.5h.6v.6h-.5l-.1-.6zm.5-.6h.7v.6h-.7v-.6zm.7-.6h.6v.6h-.6v-.6zm.6-.5h.6v.5h-.6v-.5zm.6-.6h.6v.6h-.6v-.6z"/><path class="st8" d="M146.6 17.9h.6v.6h-.6v-.6zM120.5 4.1h.6v1.1h-.6V4.1zm.6 1.1h.6v1.2h-.6V5.2zm.5 1.2h.6v1.1h-.6V6.4z"/><path class="st11" d="M126.4 22h.5v.5h-.6l.1-.5zm-.8-11.6h.7V22h-.7V10.4zm-8-9.3h1.1v.6h-1.1v-.6zm-.5.6h.5v.6h-.6l.1-.6zm-.7.7h.7V22h-.7V2.4zm.7 19.6h.5v.5h-.6l.1-.5zm9.8-20.9h1.1v.6h-1.1v-.6zm-.5.6h.5v.6h-.6l.1-.6zm-.8.7h.7v1.7h-.7V2.4zm-.5 1.7h.6v1.1h-.5l-.1-1.1zm-.5 1.1h.6v1.2h-.6V5.2zm-.6 1.2h.6v1.1h-.6V6.4zm-.6 1.1h.6v1.1h-.6V7.5zm-.6 1.1h.6v1.1h-.6V8.6z"/><path class="st10" d="M128.1 1.7h.6v.6h-.6v-.6zm.5.7h.6v20.2h-.6V2.4zm-1.7 20.1h1.7v.6H127l-.1-.6zm-9.3 0h1.7v.6h-1.6l-.1-.6zm1.6-12.1h.7v12.1h-.7V10.4zm-.5-8.7h.6v.6h-.5l-.1-.6zm.5.7h.7v1.7h-.7V2.4zm.7 1.7h.6v1.1h-.6V4.1zm.6 1.1h.6v1.2h-.6V5.2zm.6 1.2h.6v1.1h-.6V6.4zm.5 1.1h.6v1.1h-.6V7.5z"/><path class="st8" d="M122.2 7.5h.6v1.1h-.6V7.5z"/><path class="st9" d="M137.4 1.7h.6v.6h-.6v-.6zm-.6-.6h.6v.6h-.6v-.6zm9.8.6h.6v.6h-.6v-.6zm-.5-.6h.6v.6h-.6v-.6zm-6.5 21.4h.6v.6h-.6v-.6zm-.5-.5h.6v.5h-.6V22zm-.6-.7h.6v.7h-.6v-.7zm-.6-.5h.6v.6h-.6v-.6zm-.5-.6h.6v.6h-.6v-.6zm-.6-.6h.6v.6h-.6v-.6zm-.6-.5h.6v.5h-.6v-.5zm-.6-.6h.5v.6h-.6l.1-.6z"/><path class="st6" d="M106.5 1.1V.6h-.6V0H92.6v.6H92v.6h-.7v4.1h.7v.5h.5v.7h3.6v17.4h.5v.5h.6v.6h4.1v-.6h.5v-.6h.6V6.4h3.6v-.7h.5v-.5h.7V1.1h-.7zM87.9 6.4v-.7h.6v-.5h.6V1.1h-.6V.6h-.6V0H74.6v.6H74v.6h-.7v22.6h.7v.6h.6v.6H88v-.6h.6v-.6h.6v-4.1h-.6v-.5H88v-.7h-8.1v-2.9h4.6V15h.5v-.7h.7v-3.9H85v-.8h-.5v-.5h-4.6V6.3l8 .1zM70.6 1.1V.6H70V0h-4.1v.6h-.6v.6h-.7V7h-.4V5.7h-.7v-1H63V3.6h-.6V2.3h-.6V1.1h-.6V.6h-.7V0h-4v.6H56v.6h-.6v22.6h.6v.6h.6v.6h4.1v-.6h.6v-.6h.6V12.1h.6v1.2h.5v1.1h.6v1.2h.6v1.1h.6v6.9h.7v.6h.5v.6h4v-.6h.6v-.6h.6V1.1h-.6z"/><path class="st7" d="M70 1.7v-.6h-.7V.6h-2.9v.6h-.5v.6h-.6v8.1h-.7V8.6h-.4V7.5h-.7V6.4H63V5.2h-.6V4.1h-.6V2.9h-.6V1.8h-.7v-.6H60V.6h-2.9v.6h-.6v.6h-.6v21.4h.6v.6h.7v.6h2.9v-.6h.5v-.6h.6v-14h.6v1.2h.6v1.1h.6v1.2h.6v1.1h.6V15h.6v1.1h.7V23h.5v.6h.6v.6h2.9v-.6h.7V23h.6V1.7H70zm17.4 4v-.5h.6v-.6h.6V1.8H88v-.7h-.6V.7H75.2v.6h-.7v.6H74v21.5h.6v.6h.6v.6h12.1V24h.7v-.6h.5v-2.9h-.6v-.7h-.6v-.6h-8.1v-4.3h4.6v-.7h.6v-.5h.6v-2.9h-.5v-.6H84v-.7h-4.7V5.9l8.1-.2zm18.5-4v-.6h-.6V.6H93.2v.6h-.7v.6H92v2.9h.5v.7h.6v.4h3.6v17.5h.5v.6h.6v.5h2.9v-.6h.7v-.6h.5V5.7h3.6v-.5h.5v-.6h.6V1.8l-.7-.1z"/><path class="st11" d="M75.7 1.1h10.7v.6H75.7v-.6z"/><path class="st11" d="M75.2 1.7h.6v.6h-.5l-.1-.6zm-.6.7h.6V22h-.6V2.4zm.6 19.6h.6v.5h-.5l-.1-.5zm4.1-11.6h3.6v.6h-3.6v-.6zm0 9.2h7v.6h-7v-.6zm-.6-9.8h.6v.6h-.6v-.6zm0 9.3h.6v.5h-.6v-.5zm15-18h10.5v.6H93.7v-.6zm-.6.6h.6v.6h-.6v-.6zm-.5.7h.6v1.2h-.6V2.4zm.5 1.2h.6v.5h-.6v-.5zm4.1 2.1h.6v16.4h-.6V5.7zm.6 16.3h.6v.5h-.6V22z"/><path class="st8" d="M105.4 2.4h.6v1.2h-.6V2.4zm-.6 1.7h.6v.6h-.6v-.6zm-2.9.5h2.9v.6h-2.9v-.6zm-8.2 0h2.9v.6h-2.9v-.6zm2.9.6h.6v.5h-.6v-.5zm4 .5h.7v16.9h-.7V5.7zm.8-.5h.5v.5h-.6l.1-.5zm-3 17.9h1.7v.6h-1.7v-.6zm1.7-.6h.6v.6h-.5l-.1-.6zm5.3-18.9h.6v.5h-.6v-.5z"/><path class="st10" d="M104.2 1.7h.6v.6h-.6v-.6zm-5.8 20.8h1.7v.6h-1.7v-.6zm6.4-20.1h.6v1.7h-.6V2.4zm-2.9 1.7h2.9v.6h-2.9v-.6zm-.5.5h.5v.6h-.6l.1-.6zm-.8.6h.7v.5h-.7v-.5zm-.5.5h.6v16.9h-.5l-.1-16.9zm-6.4-1.6h2.9v.6h-2.9v-.6zm2.9.5h.6v.6h-.6v-.6z"/><path class="st8" d="M86.8 4.1h.6v.6h-.6v-.6zm-7.5.5h7.6v.6h-7.6v-.6zm4.1 8.7h.6v.6h-.6v-.6zm-4.1.6h4.1v.6h-4.1v-.6zm-.6-8.7h.6v.5h-.6v-.5zm-.6.5h.6V10h-.6V5.7zm.6 8.7h.6v.6h-.6v-.6zm-.6.7h.6v4.1h-.6v-4.1zm-2.4 8h11.1v.6H75.7v-.6zm8.2-11.5h.6v1.7h-.6v-1.7zm3.5-9.2h.6v1.7h-.6V2.4zm-.6 20.1h.6v.6h-.6v-.6zm.6-1.7h.6v1.7h-.6v-1.7z"/><path class="st10" d="M86.2 1.7h.6v.6h-.6v-.6zm.6.7h.6v1.7h-.6V2.4zM75.7 22.5h11.1v.6H75.7v-.6zm3.6-9.2h4.1v.6h-4.1v-.6zm4.1-1.7h.6v1.7h-.6v-1.7zm-4.7 2.3h.6v.6h-.6v-.6zm-1.2 1.2h.6v4.1h-.6v-4.1zm.6-.7h.6v.6h-.6v-.6zm.6-9.8h.6v.6h-.6v-.6zm-1.2 1.1h.6V10h-.6V5.7zm.6-.5h.6v.5h-.6v-.5zm1.2-1.1h7.6v.6h-7.6v-.6zm3.6 6.9h.5v.6h-.6l.1-.6zm3.9 9.8h.6v1.7h-.6v-1.7zm-.6-.6h.6v.6h-.6v-.6z"/><path class="st9" d="M75.2 22.5h.6v.6h-.5l-.1-.6zm-.6-.5h.6v.5h-.6V22zm8.8-11h.6v.6h-.6V11zm-5.9 8.1h.6v.5h-.6v-.5zm.6.5h.6v.6h-.6v-.6zm-.6-9.8h.6v.6h-.6v-.6zm.6.6h.6v.6h-.6v-.6zm8.7-8.7h.6v.6h-.6v-.6zm-.6-.6h.6v.6h-.6v-.6zm-3.3 9.3h.5v.6h-.6l.1-.6zm3.9 9.8h.6v.6h-.6v-.6zm-.6-.6h.6v.6h-.6v-.6zM57.1 22.5h.7v.6h-.7v-.6zm-.5-.5h.6v.5h-.6V22zm9.8.5h.7v.6h-.7v-.6zm-.5-.5h.6v.5H66l-.1-.5zm2.9-20.3h.6v.6h-.5l-.1-.6zm-.6-.6h.6v.6h-.6v-.6zm-8.7.6h.6v.6h-.5l-.1-.6zm-.6-.6h.6v.6h-.6v-.6zM60 2.4h.7v1.2H60V2.4zM97.8 22.5h.6v.6h-.6v-.6zm-.6-.5h.6v.5h-.6V22zM93.1 4.1h.6v.6h-.6v-.6zm-.5-.5h.6v.5h-.6v-.5zm12.2-1.9h.6v.6h-.6v-.6zm-.6-.6h.6v.6h-.6v-.6zm-7 4.1h.6v.5h-.6v-.5z"/><path class="st6" d="M52.5 22v-.7h-.6v-.5h-1.7v.6h-.6v.7H49v1.6h.6v.6h.6v.7h1.7v-.6h.6v-.6h.6V22h-.6z"/><path class="st12" d="M50.7 22h.7v1.6h-.7V22z"/><path class="st12" d="M50.2 22.5h1.7v.6h-1.7v-.6z"/><path class="st10" d="M51.4 22h.5v.5h-.5V22zm0 1.1h.5v.6h-.5v-.6z"/><path class="st11" d="M50.2 22h.6v.5h-.5l-.1-.5zm0 1.1h.6v.6h-.5l-.1-.6zm.5-1.8h.7v.7h-.7v-.7zm-1.1 1.2h.6v.6h-.6v-.6z"/><path class="st10" d="M50.7 23.7h.7v.6h-.7v-.6zm1.2-1.2h.6v.6h-.6v-.6z"/><g><path class="st11" d="M57.9 1.1H59v.6h-1.1v-.6zm-.8.6h.7v.6h-.7v-.6zm-.5.7h.6V22h-.6V2.4zm.5 19.6h.7v.5h-.7V22zm10-20.9h1.1v.6h-1.1v-.6zm-.7.6h.7v.6h-.7v-.6zm-.5 15.1h.6v5.3H66l-.1-5.3zm.5 5.2h.7v.5h-.7V22zm-.5-19.6h.6v8.1H66l-.1-8.1zm-5.2 1.2h.5v1.1h-.5V3.6zm.6 1h.6v1.1h-.6V4.6zm.6 1.1h.6v1.2h-.6V5.7zm.5 1.2h.6V8h-.6V6.9zm.6 1.2h.6v1.1H63V8.1zm.6 1.1h.6v1.1h-.6V9.2zm.5 1.2h.6v1.1h-.6v-1.1zm.6 1.2h.6v1.2h-.6v-1.2zm.7-1.2h.6v1.1h-.6v-1.1z"/></g><g><path class="st8" d="M57.9 23.1h1.6v.6h-1.6v-.6zm1.6-.6h.6v.6h-.5l-.1-.6zM60 8.6h.7v13.9H60V8.6zm7.1 14.5h1.6v.6h-1.6v-.6zm1.7-.6h.6v.6h-.5l-.1-.6z"/><path class="st8" d="M69.3 2.4h.7v20.2h-.7V2.4zm-7.4 6.2h.6v.6h-.6v-.6zm.5.6h.6v1.1h-.6V9.2zm.6 1.2h.6v1.1H63v-1.1zm.6 1.2h.6v1.2h-.6v-1.2zm.5 1.2h.6v1.1h-.6v-1.1zm.6 1.1h.6V15h-.6v-1.1zm.7 1.2h.6v1.1h-.6v-1.1zm-4.7-7h1.1v.6h-1.1v-.6z"/></g><g><path class="st10" d="M58.9 1.7h.6v.6h-.6v-.6zm.6.7h.6v1.2h-.5l-.1-1.2zm.5 1.2h.7v1.1H60V3.6zm8.2-1.9h.6v.6h-.6v-.6zM57.9 22.5h1.6v.6h-1.6v-.6zm1.6-13.9h.6v13.9h-.5l-.1-13.9zm9.3-6.2h.6v20.2h-.5l-.1-20.2zm-1.7 20.1h1.6v.6h-1.6v-.6zM61.9 8.1h.6v.6h-.6v-.6zm.5 1.1h.6v.6h-.6v-.6zm.6 1.2h.6v.6H63v-.6zm.6 1.2h.6v.6h-.6v-.6zm.5 1.2h.6v.5h-.6v-.5zm.6 1.1h.6v.6h-.6v-.6zm.7 1.2h.6v.6h-.6v-.6zm-5.4-7h.7v.6H60v-.6zm.7-.6h1.1v.6h-1.1v-.6z"/></g></g></svg>
